<svg width="67" height="52" viewBox="0 0 67 52" fill="none" xmlns="http://www.w3.org/2000/svg">
<path d="M1.512 41.492C1.76 41.5 1.992 41.508 2.208 41.516C2.432 41.516 2.624 41.516 2.784 41.516C2.912 41.516 3.108 41.516 3.372 41.516C3.644 41.516 3.96 41.516 4.32 41.516C4.68 41.516 5.064 41.516 5.472 41.516C5.88 41.516 6.288 41.516 6.696 41.516C7.112 41.516 7.5 41.516 7.86 41.516C8.22 41.516 8.532 41.516 8.796 41.516C9.068 41.516 9.264 41.516 9.384 41.516C9.536 41.516 9.716 41.516 9.924 41.516C10.14 41.508 10.356 41.5 10.572 41.492C10.564 41.676 10.556 41.872 10.548 42.08C10.548 42.28 10.548 42.472 10.548 42.656C10.548 42.768 10.548 42.944 10.548 43.184C10.548 43.416 10.548 43.696 10.548 44.024C10.548 44.344 10.548 44.688 10.548 45.056C10.548 45.416 10.548 45.78 10.548 46.148C10.548 46.516 10.548 46.864 10.548 47.192C10.548 47.512 10.548 47.792 10.548 48.032C10.548 48.264 10.548 48.432 10.548 48.536C10.548 48.656 10.548 48.808 10.548 48.992C10.556 49.168 10.56 49.348 10.56 49.532C10.56 49.708 10.56 49.864 10.56 50C10.568 50.128 10.572 50.196 10.572 50.204H8.916C8.916 50.188 8.916 50.092 8.916 49.916C8.924 49.732 8.928 49.516 8.928 49.268C8.936 49.02 8.94 48.788 8.94 48.572C8.94 48.468 8.94 48.292 8.94 48.044C8.94 47.796 8.94 47.504 8.94 47.168C8.94 46.832 8.94 46.476 8.94 46.1C8.94 45.724 8.94 45.356 8.94 44.996C8.94 44.636 8.94 44.308 8.94 44.012C8.94 43.716 8.94 43.48 8.94 43.304C8.94 43.128 8.94 43.04 8.94 43.04H3.144C3.144 43.04 3.144 43.128 3.144 43.304C3.144 43.48 3.144 43.716 3.144 44.012C3.144 44.3 3.144 44.628 3.144 44.996C3.144 45.356 3.144 45.724 3.144 46.1C3.144 46.468 3.144 46.824 3.144 47.168C3.144 47.504 3.144 47.796 3.144 48.044C3.144 48.292 3.144 48.468 3.144 48.572C3.144 48.716 3.144 48.88 3.144 49.064C3.144 49.24 3.144 49.412 3.144 49.58C3.152 49.748 3.156 49.888 3.156 50C3.156 50.12 3.156 50.188 3.156 50.204H1.5C1.5 50.188 1.5 50.12 1.5 50C1.508 49.88 1.512 49.732 1.512 49.556C1.52 49.38 1.524 49.2 1.524 49.016C1.532 48.832 1.536 48.668 1.536 48.524C1.536 48.42 1.536 48.252 1.536 48.02C1.536 47.78 1.536 47.496 1.536 47.168C1.536 46.84 1.536 46.496 1.536 46.136C1.536 45.768 1.536 45.4 1.536 45.032C1.536 44.664 1.536 44.32 1.536 44C1.536 43.672 1.536 43.392 1.536 43.16C1.536 42.928 1.536 42.76 1.536 42.656C1.536 42.488 1.536 42.296 1.536 42.08C1.536 41.856 1.528 41.66 1.512 41.492ZM9.54 48.02V49.556H2.328V48.02H9.54ZM21.348 40.172C21.452 40.316 21.56 40.488 21.672 40.688C21.792 40.888 21.908 41.088 22.02 41.288C22.132 41.488 22.224 41.664 22.296 41.816L21.336 42.224C21.216 41.976 21.068 41.696 20.892 41.384C20.724 41.064 20.56 40.788 20.4 40.556L21.348 40.172ZM22.764 39.632C22.868 39.776 22.98 39.952 23.1 40.16C23.228 40.36 23.348 40.56 23.46 40.76C23.58 40.952 23.672 41.12 23.736 41.264L22.788 41.672C22.66 41.416 22.508 41.132 22.332 40.82C22.156 40.508 21.984 40.24 21.816 40.016L22.764 39.632ZM22.428 42.812C22.356 42.924 22.284 43.06 22.212 43.22C22.14 43.372 22.08 43.524 22.032 43.676C21.928 44.028 21.78 44.432 21.588 44.888C21.396 45.336 21.164 45.8 20.892 46.28C20.62 46.76 20.3 47.228 19.932 47.684C19.364 48.372 18.696 48.996 17.928 49.556C17.168 50.116 16.224 50.62 15.096 51.068L13.68 49.796C14.496 49.548 15.2 49.272 15.792 48.968C16.384 48.656 16.9 48.32 17.34 47.96C17.78 47.6 18.172 47.22 18.516 46.82C18.788 46.508 19.04 46.156 19.272 45.764C19.512 45.372 19.712 44.98 19.872 44.588C20.04 44.196 20.156 43.852 20.22 43.556H16.176L16.728 42.2C16.832 42.2 17.004 42.2 17.244 42.2C17.484 42.2 17.752 42.2 18.048 42.2C18.344 42.2 18.636 42.2 18.924 42.2C19.22 42.2 19.48 42.2 19.704 42.2C19.928 42.2 20.076 42.2 20.148 42.2C20.34 42.2 20.528 42.188 20.712 42.164C20.904 42.132 21.064 42.096 21.192 42.056L22.428 42.812ZM18.516 40.916C18.372 41.124 18.232 41.348 18.096 41.588C17.96 41.828 17.856 42.012 17.784 42.14C17.512 42.62 17.176 43.12 16.776 43.64C16.376 44.152 15.924 44.652 15.42 45.14C14.924 45.62 14.388 46.06 13.812 46.46L12.468 45.452C12.996 45.132 13.46 44.8 13.86 44.456C14.26 44.112 14.608 43.772 14.904 43.436C15.2 43.092 15.456 42.764 15.672 42.452C15.888 42.132 16.068 41.844 16.212 41.588C16.308 41.444 16.408 41.252 16.512 41.012C16.624 40.764 16.704 40.54 16.752 40.34L18.516 40.916ZM35.46 41.876C35.396 41.956 35.316 42.06 35.22 42.188C35.124 42.308 35.048 42.412 34.992 42.5C34.808 42.812 34.564 43.172 34.26 43.58C33.956 43.98 33.62 44.38 33.252 44.78C32.884 45.172 32.504 45.508 32.112 45.788L30.864 44.792C31.104 44.648 31.34 44.48 31.572 44.288C31.804 44.096 32.016 43.896 32.208 43.688C32.408 43.472 32.58 43.268 32.724 43.076C32.876 42.884 32.992 42.712 33.072 42.56C32.968 42.56 32.792 42.56 32.544 42.56C32.296 42.56 32 42.56 31.656 42.56C31.312 42.56 30.94 42.56 30.54 42.56C30.148 42.56 29.756 42.56 29.364 42.56C28.972 42.56 28.6 42.56 28.248 42.56C27.904 42.56 27.604 42.56 27.348 42.56C27.1 42.56 26.924 42.56 26.82 42.56C26.572 42.56 26.336 42.568 26.112 42.584C25.888 42.6 25.636 42.62 25.356 42.644V40.976C25.588 41.008 25.828 41.036 26.076 41.06C26.324 41.084 26.572 41.096 26.82 41.096C26.924 41.096 27.108 41.096 27.372 41.096C27.636 41.096 27.948 41.096 28.308 41.096C28.676 41.096 29.064 41.096 29.472 41.096C29.888 41.096 30.3 41.096 30.708 41.096C31.124 41.096 31.508 41.096 31.86 41.096C32.22 41.096 32.524 41.096 32.772 41.096C33.028 41.096 33.2 41.096 33.288 41.096C33.4 41.096 33.536 41.092 33.696 41.084C33.856 41.076 34.012 41.064 34.164 41.048C34.324 41.032 34.44 41.012 34.512 40.988L35.46 41.876ZM30.564 43.496C30.564 44.088 30.552 44.66 30.528 45.212C30.504 45.764 30.436 46.296 30.324 46.808C30.22 47.312 30.048 47.792 29.808 48.248C29.576 48.704 29.252 49.136 28.836 49.544C28.42 49.952 27.888 50.328 27.24 50.672L25.836 49.532C26.028 49.468 26.232 49.384 26.448 49.28C26.664 49.168 26.88 49.032 27.096 48.872C27.48 48.608 27.788 48.328 28.02 48.032C28.26 47.736 28.444 47.416 28.572 47.072C28.7 46.72 28.788 46.34 28.836 45.932C28.884 45.516 28.908 45.064 28.908 44.576C28.908 44.392 28.904 44.216 28.896 44.048C28.888 43.872 28.864 43.688 28.824 43.496H30.564ZM42.864 40.196C42.84 40.452 42.82 40.66 42.804 40.82C42.788 40.972 42.78 41.132 42.78 41.3C42.78 41.404 42.78 41.564 42.78 41.78C42.78 41.996 42.78 42.22 42.78 42.452C42.78 42.684 42.78 42.876 42.78 43.028H41.112C41.112 42.86 41.112 42.66 41.112 42.428C41.112 42.196 41.112 41.976 41.112 41.768C41.112 41.56 41.112 41.404 41.112 41.3C41.112 41.132 41.104 40.972 41.088 40.82C41.08 40.66 41.056 40.452 41.016 40.196H42.864ZM46.908 42.728C46.86 42.856 46.812 43.02 46.764 43.22C46.724 43.412 46.692 43.568 46.668 43.688C46.62 43.968 46.56 44.252 46.488 44.54C46.424 44.828 46.344 45.116 46.248 45.404C46.16 45.692 46.056 45.976 45.936 46.256C45.824 46.536 45.696 46.812 45.552 47.084C45.232 47.668 44.824 48.2 44.328 48.68C43.84 49.16 43.284 49.568 42.66 49.904C42.036 50.232 41.368 50.492 40.656 50.684L39.408 49.244C39.68 49.196 39.968 49.132 40.272 49.052C40.576 48.964 40.852 48.872 41.1 48.776C41.436 48.648 41.768 48.488 42.096 48.296C42.432 48.096 42.748 47.864 43.044 47.6C43.34 47.336 43.6 47.044 43.824 46.724C44.024 46.428 44.196 46.112 44.34 45.776C44.484 45.432 44.6 45.08 44.688 44.72C44.776 44.352 44.844 43.992 44.892 43.64H38.94C38.94 43.744 38.94 43.876 38.94 44.036C38.94 44.188 38.94 44.356 38.94 44.54C38.94 44.716 38.94 44.88 38.94 45.032C38.94 45.176 38.94 45.296 38.94 45.392C38.94 45.528 38.944 45.68 38.952 45.848C38.96 46.016 38.968 46.16 38.976 46.28H37.32C37.336 46.128 37.348 45.964 37.356 45.788C37.372 45.604 37.38 45.432 37.38 45.272C37.38 45.176 37.38 45.036 37.38 44.852C37.38 44.668 37.38 44.472 37.38 44.264C37.38 44.048 37.38 43.844 37.38 43.652C37.38 43.46 37.38 43.308 37.38 43.196C37.38 43.06 37.376 42.892 37.368 42.692C37.36 42.484 37.344 42.308 37.32 42.164C37.528 42.188 37.728 42.204 37.92 42.212C38.112 42.22 38.32 42.224 38.544 42.224H44.868C45.116 42.224 45.316 42.212 45.468 42.188C45.628 42.156 45.76 42.124 45.864 42.092L46.908 42.728ZM51.768 48.848C51.768 48.696 51.768 48.448 51.768 48.104C51.768 47.752 51.768 47.348 51.768 46.892C51.768 46.428 51.768 45.944 51.768 45.44C51.768 44.936 51.768 44.452 51.768 43.988C51.768 43.516 51.768 43.1 51.768 42.74C51.768 42.38 51.768 42.116 51.768 41.948C51.768 41.74 51.756 41.5 51.732 41.228C51.716 40.956 51.688 40.716 51.648 40.508H53.52C53.496 40.716 53.472 40.948 53.448 41.204C53.424 41.452 53.412 41.7 53.412 41.948C53.412 42.172 53.412 42.476 53.412 42.86C53.412 43.244 53.412 43.672 53.412 44.144C53.412 44.608 53.412 45.084 53.412 45.572C53.412 46.052 53.412 46.516 53.412 46.964C53.412 47.412 53.412 47.804 53.412 48.14C53.412 48.468 53.412 48.704 53.412 48.848C53.412 48.96 53.416 49.12 53.424 49.328C53.432 49.528 53.448 49.736 53.472 49.952C53.496 50.168 53.512 50.36 53.52 50.528H51.648C51.68 50.288 51.708 50.008 51.732 49.688C51.756 49.368 51.768 49.088 51.768 48.848ZM53.052 43.616C53.452 43.72 53.9 43.856 54.396 44.024C54.892 44.184 55.392 44.356 55.896 44.54C56.4 44.724 56.872 44.908 57.312 45.092C57.76 45.268 58.132 45.432 58.428 45.584L57.744 47.24C57.408 47.064 57.036 46.888 56.628 46.712C56.22 46.528 55.804 46.352 55.38 46.184C54.964 46.016 54.552 45.86 54.144 45.716C53.744 45.572 53.38 45.444 53.052 45.332V43.616Z" fill="#7F5539"/>
<path d="M27.5 13.5V9L35 15L27.5 21V16.5H14V13.5H27.5ZM16.187 19.5H19.373C20.4201 22.0786 22.3306 24.2133 24.7777 25.5389C27.2248 26.8645 30.0565 27.2987 32.7883 26.7671C35.5202 26.2356 37.9825 24.7713 39.754 22.6249C41.5255 20.4784 42.4962 17.7831 42.5 15C42.5016 12.214 41.5337 9.51425 39.7624 7.36383C37.991 5.21342 35.5267 3.74634 32.792 3.21422C30.0572 2.6821 27.2226 3.11811 24.7742 4.44747C22.3258 5.77682 20.4162 7.91667 19.373 10.5H16.187C18.098 4.4145 23.783 0 30.5 0C38.7845 0 45.5 6.7155 45.5 15C45.5 23.2845 38.7845 30 30.5 30C23.783 30 18.098 25.5855 16.187 19.5Z" fill="#7F5539"/>
</svg>
