<svg width="36" height="36" viewBox="0 0 36 36" fill="none" xmlns="http://www.w3.org/2000/svg">
<rect x="0.5" y="0.5" width="35" height="35" fill="white" stroke="#7F5539"/>
<path fill-rule="evenodd" clip-rule="evenodd" d="M18.0114 10.9807L16.9752 9.79128C16.4896 9.2263 15.9113 8.77717 15.2738 8.46975C14.6363 8.16233 13.9521 8.00269 13.2606 8.00003C12.5691 7.99737 11.884 8.15174 11.2447 8.45425C10.6055 8.75676 10.0246 9.20144 9.53566 9.76267C9.0467 10.3239 8.6593 10.9906 8.39575 11.7244C8.1322 12.4582 7.99771 13.2446 8.00003 14.0383C8.00235 14.832 8.14142 15.6173 8.40925 16.3491C8.67707 17.0809 9.06836 17.7446 9.56058 18.302L17.9867 27.9737L17.9886 27.9716L18.0133 28L26.4394 18.3283C26.9316 17.7708 27.3229 17.1071 27.5908 16.3754C27.8586 15.6436 27.9977 14.8583 28 14.0646C28.0023 13.2709 27.8678 12.4845 27.6042 11.7507C27.3407 11.0169 26.9533 10.3502 26.4643 9.78893C25.9754 9.2277 25.3945 8.78302 24.7553 8.48052C24.116 8.17801 23.4309 8.02364 22.7394 8.02629C22.0479 8.02895 21.3637 8.18859 20.7262 8.49601C20.0887 8.80343 19.5104 9.25256 19.0248 9.81754L18.0114 10.9807ZM17.9886 24.8771L22.694 19.475L24.0762 17.9431H24.0781L25.0915 16.7811C25.7172 16.0628 26.0688 15.0887 26.0688 14.0729C26.0688 13.0572 25.7172 12.083 25.0915 11.3648C24.4657 10.6465 23.617 10.243 22.7321 10.243C21.8472 10.243 20.9985 10.6465 20.3727 11.3648L18.0124 14.0751L18.0057 14.0674L15.6273 11.3396C15.0015 10.6213 14.1528 10.2178 13.2679 10.2178C12.383 10.2178 11.5343 10.6213 10.9085 11.3396C10.2828 12.0578 9.93124 13.032 9.93124 14.0478C9.93124 15.0635 10.2828 16.0377 10.9085 16.7559L13.3299 19.5352L13.3308 19.5319L17.9886 24.8782V24.8771Z" fill="#BF0000"/>
</svg>
