<svg width="18" height="18" viewBox="0 0 18 18" fill="none" xmlns="http://www.w3.org/2000/svg">
<path d="M14.625 7.12007C14.625 8.69127 14.1012 10.1427 13.2188 11.3202L17.6695 15.6573C18.109 16.0852 18.109 16.7801 17.6695 17.208C17.2301 17.6359 16.5164 17.6359 16.077 17.208L11.6262 12.8709C10.4168 13.7335 8.92617 14.2401 7.3125 14.2401C3.27305 14.2401 0 11.0532 0 7.12007C0 3.18691 3.27305 0 7.3125 0C11.352 0 14.625 3.18691 14.625 7.12007ZM7.3125 12.0493C7.97732 12.0493 8.63562 11.9218 9.24984 11.6741C9.86405 11.4264 10.4221 11.0633 10.8922 10.6056C11.3623 10.1479 11.7352 9.60447 11.9896 9.00642C12.2441 8.40837 12.375 7.76739 12.375 7.12007C12.375 6.47274 12.2441 5.83176 11.9896 5.23371C11.7352 4.63567 11.3623 4.09227 10.8922 3.63454C10.4221 3.17682 9.86405 2.81373 9.24984 2.56601C8.63562 2.31829 7.97732 2.19079 7.3125 2.19079C6.64768 2.19079 5.98938 2.31829 5.37516 2.56601C4.76095 2.81373 4.20287 3.17682 3.73277 3.63454C3.26268 4.09227 2.88977 4.63567 2.63536 5.23371C2.38095 5.83176 2.25 6.47274 2.25 7.12007C2.25 7.76739 2.38095 8.40837 2.63536 9.00642C2.88977 9.60447 3.26268 10.1479 3.73277 10.6056C4.20287 11.0633 4.76095 11.4264 5.37516 11.6741C5.98938 11.9218 6.64768 12.0493 7.3125 12.0493Z" fill="#7F5539"/>
</svg>
